<svg xmlns="http://www.w3.org/2000/svg" xmlns:xlink="http://www.w3.org/1999/xlink" version="1.1" x="0px" y="0px" viewBox="0 0 100 125" style="enable-background:new 0 0 100 100;" xml:space="preserve"><symbol viewBox="-19.614 -20.347 39.228 46.027"><g><path style="" d="M0-5.167c-7.953,0-14.424,6.47-14.424,14.424S-7.954,23.68,0,23.68s14.424-6.47,14.424-14.423    S7.953-5.167,0-5.167z" fill="#F2F2F2"/><path style="" d="M0,21.68c6.85,0,12.423-5.573,12.423-12.423S6.85-3.167,0-3.167S-12.424,2.406-12.424,9.256    S-6.851,21.68,0,21.68 M0,25.68c-9.07,0-16.423-7.353-16.423-16.423S-9.071-7.167,0-7.167S16.423,0.186,16.423,9.256    S9.07,25.68,0,25.68L0,25.68z" fill="#FFFFFF"/></g><g><path style="" d="M0,0.166c-5.012,0-9.09,4.078-9.09,9.09s4.078,9.09,9.09,9.09s9.09-4.078,9.09-9.09    S5.012,0.166,0,0.166z" fill="#FFFFFF"/><path d="M0,16.347c3.91,0,7.09-3.181,7.09-7.09S3.909,2.166,0,2.166s-7.09,3.181-7.09,7.09S-3.91,16.347,0,16.347 M0,20.347    c-6.125,0-11.09-4.965-11.09-11.09S-6.125-1.834,0-1.834s11.09,4.965,11.09,11.09S6.125,20.347,0,20.347L0,20.347z"/></g><path style="" d="M17.613-20.347   c0,7.06-5.776,12.836-12.836,12.836h-9.555c-7.06,0-12.836-5.776-12.836-12.836" fill="#FFFFFF" stroke="#000000" stroke-width="4" stroke-miterlimit="3"/></symbol><g style="" display="none"><rect x="-501" y="-1057" style="" width="1388" height="1432" display="inline" fill="#9ACBCC"/></g><g><path d="M10.259,56.963c0,6.787,5.502,12.289,12.289,12.289s12.289-5.502,12.289-12.289c0-6.787-5.502-12.289-12.289-12.289   S10.259,50.176,10.259,56.963z M29.871,56.963c0,4.038-3.285,7.324-7.324,7.324s-7.324-3.285-7.324-7.324s3.285-7.324,7.324-7.324   S29.871,52.925,29.871,56.963z"/><path d="M36.004,94.823c2.637,0,4.585-2.459,3.981-5.026l-2.729-12.841c-0.617-2.623-2.958-4.477-5.652-4.477H13.492   c-2.695,0-5.035,1.854-5.652,4.477L5.111,89.797c-0.604,2.567,1.344,5.026,3.981,5.026H36.004z M12.68,78.064   c0.1-0.366,0.429-0.62,0.812-0.62h18.111c0.382,0,0.712,0.253,0.812,0.62l2.507,11.793H10.174L12.68,78.064z"/><path d="M85.952,5.177H52.754c-6.466,0-11.708,5.242-11.708,11.708v39.668c0,0.814,0.666,1.354,1.361,1.354   c0.332,0,0.67-0.123,0.945-0.398L54.31,46.55c0.253-0.253,0.597-0.396,0.955-0.396h30.688c4.997,0,9.048-4.051,9.048-9.048V14.225   C95,9.228,90.949,5.177,85.952,5.177z M90.967,37.107c0,2.765-2.249,5.014-5.014,5.014H55.265c-1.438,0-2.79,0.56-3.807,1.577   l-6.378,6.378V16.885c0-4.232,3.443-7.674,7.674-7.674h33.199c2.765,0,5.014,2.249,5.014,5.014V37.107z"/><path d="M72.827,13.479c-0.703-0.52-1.527-0.901-2.473-1.143c-0.945-0.242-1.968-0.363-3.066-0.363   c-1.146,0-2.257,0.136-3.332,0.408c-1.075,0.272-2.068,0.679-2.978,1.223v5.335c0.886-0.78,1.826-1.362,2.818-1.746   c0.993-0.384,1.95-0.576,2.871-0.576c0.425,0,0.812,0.065,1.161,0.195c0.349,0.13,0.644,0.307,0.886,0.532   c0.242,0.224,0.428,0.493,0.558,0.806c0.13,0.313,0.195,0.653,0.195,1.019c0,0.425-0.059,0.812-0.177,1.161   c-0.118,0.349-0.295,0.685-0.532,1.01s-0.523,0.65-0.86,0.975s-0.73,0.677-1.179,1.055c-0.425,0.355-0.798,0.712-1.117,1.072   c-0.319,0.36-0.585,0.739-0.798,1.134s-0.372,0.818-0.479,1.267c-0.106,0.449-0.16,0.945-0.16,1.489   c0,0.343,0.033,0.706,0.098,1.09c0.065,0.384,0.157,0.73,0.275,1.037h4.662c-0.13-0.201-0.233-0.449-0.31-0.744   s-0.115-0.585-0.115-0.869c0-0.414,0.053-0.783,0.16-1.108s0.263-0.632,0.47-0.922c0.207-0.29,0.467-0.582,0.78-0.877   c0.313-0.295,0.677-0.614,1.09-0.957c0.614-0.508,1.158-1.001,1.631-1.48s0.869-0.978,1.188-1.498   c0.319-0.52,0.561-1.072,0.727-1.657c0.165-0.585,0.248-1.238,0.248-1.959c0-1.134-0.198-2.106-0.594-2.916   C74.079,14.664,73.53,13.999,72.827,13.479z"/><path d="M67.128,32.374c-0.945,0-1.731,0.278-2.357,0.833c-0.626,0.555-0.939,1.247-0.939,2.074c0,0.804,0.313,1.501,0.939,2.092   c0.626,0.567,1.412,0.851,2.357,0.851c0.945,0,1.725-0.278,2.34-0.833c0.603-0.555,0.904-1.258,0.904-2.109   c0-0.839-0.307-1.53-0.922-2.074C68.836,32.652,68.062,32.374,67.128,32.374z"/></g><text x="0" y="115" fill="#000000" font-size="5px" font-weight="bold" font-family="'Helvetica Neue', Helvetica, Arial-Unicode, Arial, Sans-serif">Created by Oksana Latysheva</text><text x="0" y="120" fill="#000000" font-size="5px" font-weight="bold" font-family="'Helvetica Neue', Helvetica, Arial-Unicode, Arial, Sans-serif">from the Noun Project</text></svg>